<svg width="24" height="25" viewBox="0 0 24 25" fill="none" xmlns="http://www.w3.org/2000/svg">
<path d="M20.5999 4.59998V6.79998C20.5999 7.59998 20.0999 8.59998 19.5999 9.09998L15.2999 12.9C14.6999 13.4 14.2999 14.4 14.2999 15.2V19.5C14.2999 20.1 13.8999 20.9 13.3999 21.2L11.9999 22.1C10.6999 22.9 8.89988 22 8.89988 20.4V15.1C8.89988 14.4 8.49989 13.5 8.09989 13L7.62989 12.51C7.31989 12.18 7.25989 11.68 7.50989 11.29L12.6299 3.06998C12.8099 2.77998 13.1299 2.59998 13.4799 2.59998H18.5999C19.6999 2.59998 20.5999 3.49998 20.5999 4.59998Z" fill="#667085"/>
<path d="M10.3504 4.12998L6.80039 9.81998C6.46039 10.37 5.68039 10.45 5.23039 9.97998L4.30039 8.99998C3.80039 8.49998 3.40039 7.59998 3.40039 6.99998V4.69998C3.40039 3.49998 4.30039 2.59998 5.40039 2.59998H9.50039C10.2804 2.59998 10.7604 3.45998 10.3504 4.12998Z" fill="#667085"/>
</svg>
